HIERARCHY
ROOT Hips
{
	OFFSET 0.0000 0.0000 0.0000
	CHANNELS 6 Xposition Yposition Zposition Zrotation Xrotation Yrotation
	JOINT Ab
	{
		OFFSET -0.0000 8.1305 -0.0000
		CHANNELS 3 Zrotation Xrotation Yrotation
		JOINT Chest
		{
			OFFSET -0.0000 26.2902 -0.0000
			CHANNELS 3 Zrotation Xrotation Yrotation
			JOINT Neck
			{
				OFFSET -0.0000 26.2902 0.0000
				CHANNELS 3 Zrotation Xrotation Yrotation
				JOINT Head
				{
					OFFSET -0.0000 10.8167 0.0000
					CHANNELS 3 Zrotation Xrotation Yrotation
					End Site
					{
						OFFSET -0.0000 16.7167 0.0000
					}
				}
			}
			JOINT LeftCollar
			{
				OFFSET -0.0000 26.2902 0.0000
				CHANNELS 3 Zrotation Xrotation Yrotation
				JOINT LeftShoulder
				{
					OFFSET 19.6667 -0.0000 0.0000
					CHANNELS 3 Zrotation Xrotation Yrotation
					JOINT LeftElbow
					{
						OFFSET 27.2190 0.0000 0.0000
						CHANNELS 3 Zrotation Xrotation Yrotation
						JOINT LeftWrist
						{
							OFFSET 30.7431 0.0000 0.0000
							CHANNELS 3 Zrotation Xrotation Yrotation
							End Site
							{
								OFFSET 0.0000 -14.7500 0.0000
							}
						}
					}
				}
			}
			JOINT RightCollar
			{
				OFFSET -0.0000 26.2902 0.0000
				CHANNELS 3 Zrotation Xrotation Yrotation
				JOINT RightShoulder
				{
					OFFSET -19.6667 0.0000 0.0000
					CHANNELS 3 Zrotation Xrotation Yrotation
					JOINT RightElbow
					{
						OFFSET -27.2190 0.0000 0.0000
						CHANNELS 3 Zrotation Xrotation Yrotation
						JOINT RightWrist
						{
							OFFSET -30.7431 0.0000 0.0000
							CHANNELS 3 Zrotation Xrotation Yrotation
							End Site
							{
								OFFSET -0.0000 -14.7500 0.0000
							}
						}
					}
				}
			}
		}
	}
	JOINT LeftHip
	{
		OFFSET 11.8000 0.0000 0.0000
		CHANNELS 3 Zrotation Xrotation Yrotation
		JOINT LeftKnee
		{
			OFFSET -0.0000 -39.7832 0.0000
			CHANNELS 3 Zrotation Xrotation Yrotation
			JOINT LeftAnkle
			{
				OFFSET -0.0000 -41.7317 0.0000
				CHANNELS 3 Zrotation Xrotation Yrotation
				End Site
				{
					OFFSET -0.0000 -4.9167 16.7167
				}
			}
		}
	}
	JOINT RightHip
	{
		OFFSET -11.8000 0.0000 0.0000
		CHANNELS 3 Zrotation Xrotation Yrotation
		JOINT RightKnee
		{
			OFFSET -0.0000 -39.7832 0.0000
			CHANNELS 3 Zrotation Xrotation Yrotation
			JOINT RightAnkle
			{
				OFFSET -0.0000 -41.7317 0.0000
				CHANNELS 3 Zrotation Xrotation Yrotation
				End Site
				{
					OFFSET -0.0000 -4.9167 16.7167
				}
			}
		}
	}
}
MOTION
Frames: 16
Frame Time: 0.010000
-18.8845 96.9083 175.1436 358.0327 357.0403 178.6375 357.6917 348.1031 359.6757 2.5220 10.6511 359.6800 358.9181 357.7385 0.8998 355.4020 3.1224 1.0473 339.8698 357.3142 15.1404 319.1295 59.2508 338.1804 9.7263 357.0931 326.7719 91.0311 356.7545 346.0233 26.9661 355.8131 342.7076 47.1808 43.9481 1.2662 339.2767 354.0984 31.7050 269.4127 353.9338 8.0671 355.5729 2.7849 1.6989 358.3048 6.3965 5.0378 356.3205 352.2747 13.5360 357.9011 5.5659 11.3969 6.3040 6.5592 9.2530 349.4911 342.8302 310.9138 
-18.9034 96.9027 175.1309 358.0310 356.9944 178.6356 357.6907 348.0792 359.6743 2.5242 10.6692 359.6777 358.9239 357.6949 0.8992 355.3782 3.1592 1.0481 339.8774 357.3078 15.1460 319.1563 59.2509 338.1272 9.7662 357.0921 326.7802 91.1419 356.7724 346.1397 26.9535 355.8443 342.6907 47.1499 43.9716 1.3586 339.2564 354.0531 31.6951 269.5392 353.9054 7.9260 355.5624 2.7363 1.7009 358.2992 6.4173 5.0277 356.2920 352.2666 13.5439 357.8891 5.5117 11.3848 6.3041 6.5941 9.2667 349.6381 342.5436 310.8216 
-18.9268 96.9001 175.1094 358.0309 356.9817 178.6339 357.7065 348.0835 359.6719 2.5029 10.6846 359.6746 358.9427 357.6658 0.9037 355.3563 3.1891 1.0531 339.8980 357.3027 15.1217 319.0866 59.2317 338.1969 9.7715 357.0529 326.7012 91.8283 356.8250 346.4979 26.9233 355.8146 342.6852 47.1979 44.0319 1.3777 339.1510 354.0299 31.6636 269.6128 353.8771 7.8714 355.5471 2.7304 1.6824 358.2953 6.4378 5.0139 356.4012 352.2301 13.6103 357.8756 5.4996 11.3586 6.3061 6.6145 9.2357 349.6269 342.5505 310.8815 
-18.9522 96.8962 175.0856 358.0287 356.9593 178.6327 357.7256 348.0639 359.6684 2.4794 10.7285 359.6685 358.9542 357.6070 0.9108 355.3345 3.2333 1.0614 339.9184 357.3193 15.1210 319.0600 59.2033 338.2052 9.7560 357.0606 326.6690 91.8160 356.8262 346.4911 26.9115 355.8502 342.6820 47.2045 44.0332 1.4061 339.1995 354.0322 31.6823 269.5654 353.9144 7.8566 355.5282 2.7255 1.6491 358.2921 6.4352 5.0244 356.3774 352.2085 13.6321 357.8538 5.4907 11.3610 6.3099 6.6229 9.2702 349.5154 342.7455 310.9225 
-18.9772 96.8930 175.0611 358.0190 356.9280 178.6258 357.7436 348.0401 359.6563 2.4449 10.7625 359.6593 358.9516 357.5343 0.9222 355.3321 3.3064 1.0774 339.9490 357.3091 15.1449 319.0685 59.2231 338.1537 9.8263 357.0380 326.6862 91.6920 356.8264 346.5059 26.9034 355.8238 342.6936 47.2254 44.0581 1.4243 339.1151 354.0131 31.6761 269.7068 353.8709 7.6993 355.4997 2.7066 1.6261 358.2944 6.4402 5.0589 356.4064 352.1941 13.6109 357.8256 5.4589 11.3418 6.3193 6.6505 9.2545 349.5690 342.5434 310.8609 
-19.0002 96.8900 175.0394 358.0129 356.9009 178.6268 357.7394 348.0247 359.6502 2.4398 10.7968 359.6565 358.9616 357.4895 0.9259 355.3210 3.3401 1.0846 339.9448 357.3262 15.1455 319.0974 59.1793 338.1346 9.7612 357.0584 326.6621 91.6542 356.8378 346.4481 26.8929 355.8402 342.6897 47.2124 44.0795 1.4671 339.1396 354.0202 31.6794 269.7036 353.8968 7.6783 355.4818 2.6908 1.5828 358.2855 6.4466 5.0652 356.3656 352.1687 13.6427 357.8065 5.4388 11.3195 6.3171 6.6645 9.2658 349.5996 342.5041 310.8590 
-19.0253 96.8869 175.0174 358.0081 356.8703 178.6153 357.7438 348.0349 359.6567 2.4424 10.7773 359.6590 358.9351 357.4721 0.9293 355.3374 3.3679 1.0882 339.9384 357.3027 15.1730 319.1665 59.2326 338.0467 9.8165 357.0469 326.7005 91.6301 356.8275 346.5029 26.8864 355.8275 342.6784 47.1888 44.1161 1.4953 339.0986 354.0206 31.6713 269.7195 353.9027 7.6614 355.4632 2.6815 1.5440 358.2722 6.4333 5.0978 356.3380 352.1531 13.6568 357.7779 5.4105 11.3314 6.3349 6.6802 9.2642 349.6599 342.4402 310.8582 
-19.0514 96.8845 174.9902 358.0052 356.8499 178.6070 357.6770 348.1414 359.7022 2.5555 10.5819 359.7079 358.9229 357.6177 0.9031 355.3217 3.3074 1.0585 339.8664 357.2977 15.1393 319.0967 59.2898 338.1960 9.7511 357.0727 326.6936 91.7063 356.8072 346.5088 26.8366 355.8190 342.6069 47.2247 44.1721 1.4373 339.0602 354.0273 31.6361 269.6844 353.9316 7.6914 355.4472 2.6941 1.4768 358.2516 6.4032 5.1490 356.4682 352.1577 13.6720 357.7544 5.4059 11.3353 6.3407 6.6781 9.2384 349.6838 342.4026 310.8788 
-19.0765 96.8803 174.9637 358.0035 356.8267 178.6001 357.7037 348.1311 359.6958 2.5084 10.6130 359.6993 358.9687 357.5839 0.8820 355.3237 3.3134 1.0376 339.8942 357.3007 15.1187 319.1846 59.3161 338.1018 9.7860 357.0533 326.7153 91.5466 356.6704 346.3168 26.8473 355.8173 342.5708 47.2336 44.1707 1.4675 339.0998 354.0365 31.6273 269.5118 353.9622 7.8042 355.4392 2.6957 1.4092 358.2244 6.3932 5.1770 356.4553 352.1362 13.7070 357.7321 5.3946 11.3308 6.3476 6.6838 9.2257 349.6674 342.4093 310.9084 
-19.1041 96.8745 174.9304 358.0025 356.8125 178.5950 357.7226 348.1241 359.6935 2.4854 10.6434 359.6967 358.9252 357.5675 0.8808 355.3827 3.3181 1.0370 339.9136 357.2981 15.1293 319.1660 59.3087 338.0989 9.8043 357.0584 326.7312 91.4749 356.6499 346.1837 26.8531 355.8207 342.6031 47.2243 44.1719 1.4702 339.1074 354.0421 31.6203 269.5365 353.9473 7.8298 355.4253 2.7235 1.3425 358.2018 6.3552 5.2413 356.4029 352.1307 13.7140 357.7065 5.4045 11.3203 6.3537 6.6781 9.2358 349.5934 342.4416 310.9044 
-19.1331 96.8704 174.8963 358.0007 356.8005 178.5884 357.7224 348.1157 359.6903 2.4857 10.6796 359.7056 358.9219 357.5563 0.8775 355.3875 3.3168 1.0340 339.9160 357.3058 15.1396 319.2007 59.2935 338.0457 9.7758 357.0626 326.7204 91.4915 356.6834 346.2018 26.9048 355.8280 342.7096 47.1755 44.0315 1.3793 339.2136 354.0641 31.6884 269.4059 353.9782 8.0139 355.4090 2.7463 1.2886 358.1814 6.3305 5.2716 356.4645 352.1209 13.7372 357.6807 5.4150 11.3148 6.3629 6.6698 9.2285 349.6019 342.4185 310.9033 
-19.1642 96.8664 174.8601 357.9974 356.7805 178.5928 357.7407 348.0999 359.6846 2.4584 10.7104 359.6944 358.8926 357.5578 0.8747 355.4297 3.3086 1.0312 339.9227 357.3018 15.1363 319.2131 59.2769 338.0384 9.7923 357.0700 326.7160 91.4544 356.6861 346.2174 26.8915 355.8298 342.7008 47.1870 44.0749 1.4324 339.1827 354.0281 31.6436 269.4064 353.9763 8.1006 355.3919 2.7568 1.1974 358.1577 6.3183 5.3120 356.5540 352.1048 13.7668 357.6536 5.4228 11.3013 6.3653 6.6685 9.2320 349.6123 342.3929 310.9150 
-19.1925 96.8611 174.8267 357.9977 356.7512 178.5920 357.7854 348.0592 359.6723 2.3913 10.7868 359.6832 358.9093 357.4855 0.8770 355.4079 3.3559 1.0357 339.9490 357.3096 15.1500 319.2375 59.2052 337.9942 9.7612 357.0789 326.7052 91.4214 356.6929 346.1985 26.9103 355.8274 342.7154 47.1794 44.0869 1.4728 339.1841 354.0442 31.6406 269.3346 353.9410 8.0390 355.3844 2.7540 1.1009 358.1244 6.3092 5.3959 356.5279 352.0817 13.7854 357.6347 5.4141 11.2962 6.3726 6.6653 9.2162 349.7258 342.2884 310.9173 
-19.2246 96.8585 174.7934 357.9935 356.7195 178.5957 357.8037 348.0250 359.6670 2.3647 10.8454 359.6752 358.9146 357.4392 0.8861 355.3965 3.3729 1.0453 339.9600 357.2963 15.1807 319.2800 59.1852 337.9255 9.7849 357.0797 326.7090 91.3551 356.6990 346.2171 26.8974 355.8196 342.7292 47.1971 44.1373 1.5034 339.1378 354.0265 31.6143 269.3678 353.9368 8.0128 355.3654 2.7289 0.9638 358.0957 6.3363 5.5054 356.5747 352.0522 13.7994 357.6071 5.4035 11.2926 6.3750 6.6697 9.2093 349.6925 342.2882 310.9230 
-19.2567 96.8547 174.7601 357.9887 356.6885 178.5988 357.7654 348.0501 359.6847 2.4268 10.7975 359.6943 358.9191 357.4565 0.8823 355.3612 3.3749 1.0433 339.9257 357.3170 15.1684 319.2348 59.1661 337.9971 9.7239 357.0883 326.6768 91.3292 356.7223 346.1817 26.8604 355.8413 342.7093 47.2277 44.1565 1.4899 339.1369 354.0167 31.6100 269.3492 353.9352 8.0232 355.3469 2.7082 0.7952 358.0611 6.3572 5.6297 356.5361 352.0128 13.8428 357.5814 5.3929 11.2762 6.3740 6.6783 9.2223 349.6714 342.2695 310.9168 
-19.2906 96.8503 174.7232 357.9896 356.6674 178.5957 357.7023 348.1257 359.7264 2.5346 10.6764 359.7433 358.9441 357.4964 0.8496 355.3066 3.3930 1.0112 339.8775 357.3125 15.1236 319.1668 59.2093 338.0865 9.7564 357.0654 326.6826 91.2170 356.7169 346.1319 26.7960 355.8302 342.6304 47.2874 44.1792 1.4660 339.0633 354.0051 31.5839 269.3886 353.9251 7.9932 355.3301 2.7007 0.6105 358.0270 6.3816 5.7262 356.6039 351.9662 13.9246 357.5585 5.3922 11.2695 6.3808 6.6786 9.1973 349.6828 342.2393 310.9302 
